STARTFONT 2.1
FONT -FontForge-Monoton-Book-R-Normal--11-110-72-72-P-74-ISO10646-1
SIZE 11 72 72
FONTBOUNDINGBOX 21 17 -2 -4
COMMENT "Generated by fontforge, http://fontforge.sourceforge.net"
COMMENT "Copyright (c) 2011 by vernon adams. All rights reserved."
STARTPROPERTIES 40
FOUNDRY "FontForge"
FAMILY_NAME "Monoton"
WEIGHT_NAME "Book"
SLANT "R"
SETWIDTH_NAME "Normal"
ADD_STYLE_NAME ""
PIXEL_SIZE 11
POINT_SIZE 110
RESOLUTION_X 72
RESOLUTION_Y 72
SPACING "P"
AVERAGE_WIDTH 74
CHARSET_REGISTRY "ISO10646"
CHARSET_ENCODING "1"
FONTNAME_REGISTRY ""
CHARSET_COLLECTIONS "ISO8859-2 ISO8859-9 ISO8859-4 ISO10646-1"
FONT_NAME "Monoton-Regular"
FACE_NAME "Monoton"
COPYRIGHT "Copyright (c) 2011 by vernon adams. All rights reserved."
FONT_VERSION "1.000"
FONT_ASCENT 9
FONT_DESCENT 2
UNDERLINE_POSITION -1
UNDERLINE_THICKNESS 1
X_HEIGHT 7
CAP_HEIGHT 8
DEFAULT_CHAR 1
RAW_ASCENT 799
RAW_DESCENT 200
NORM_SPACE 1
RELATIVE_WEIGHT 40
RELATIVE_SETWIDTH 50
SUPERSCRIPT_X 0
SUPERSCRIPT_Y 3
SUPERSCRIPT_SIZE 6
SUBSCRIPT_X 0
SUBSCRIPT_Y 0
SUBSCRIPT_SIZE 6
AVG_LOWERCASE_WIDTH 79
AVG_UPPERCASE_WIDTH 87
ENDPROPERTIES
CHARS 372
STARTCHAR glyph1.dup1
ENCODING 0
SWIDTH 108 0
DWIDTH 1 0
BBX 1 1 0 0
BITMAP
00
ENDCHAR
STARTCHAR uni0002
ENCODING 2
SWIDTH 108 0
DWIDTH 1 0
BBX 1 1 0 0
BITMAP
00
ENDCHAR
STARTCHAR uni0009
ENCODING 9
SWIDTH 108 0
DWIDTH 1 0
BBX 1 1 0 0
BITMAP
00
ENDCHAR
STARTCHAR uni000A
ENCODING 10
SWIDTH 108 0
DWIDTH 1 0
BBX 1 1 0 0
BITMAP
00
ENDCHAR
STARTCHAR uni000D
ENCODING 13
SWIDTH 108 0
DWIDTH 1 0
BBX 1 1 0 0
BITMAP
00
ENDCHAR
STARTCHAR space
ENCODING 32
SWIDTH 108 0
DWIDTH 1 0
BBX 1 1 0 0
BITMAP
00
ENDCHAR
STARTCHAR exclam
ENCODING 33
SWIDTH 336 0
DWIDTH 4 0
BBX 3 9 0 0
BITMAP
E0
E0
E0
E0
E0
E0
E0
E0
E0
ENDCHAR
STARTCHAR quotedbl
ENCODING 34
SWIDTH 538 0
DWIDTH 6 0
BBX 5 4 0 5
BITMAP
C8
C8
C8
C8
ENDCHAR
STARTCHAR numbersign
ENCODING 35
SWIDTH 1014 0
DWIDTH 11 0
BBX 11 10 0 -1
BITMAP
0CC0
3BA0
36E0
5980
1980
3300
6DC0
FF80
3300
6600
ENDCHAR
STARTCHAR dollar
ENCODING 36
SWIDTH 686 0
DWIDTH 8 0
BBX 7 12 0 -2
BITMAP
18
76
FA
D4
FC
4E
36
2E
7E
DC
20
10
ENDCHAR
STARTCHAR percent
ENCODING 37
SWIDTH 1504 0
DWIDTH 17 0
BBX 16 10 0 -1
BITMAP
7CC0
F4C0
DAC0
DADE
F5BF
7DBF
01BF
01BF
031E
0300
ENDCHAR
STARTCHAR ampersand
ENCODING 38
SWIDTH 1029 0
DWIDTH 11 0
BBX 11 9 0 0
BITMAP
3DC0
7DC0
FDC0
E1C0
DEE0
FEE0
FF60
4180
3EE0
ENDCHAR
STARTCHAR quotesingle
ENCODING 39
SWIDTH 257 0
DWIDTH 3 0
BBX 2 4 0 5
BITMAP
C0
C0
C0
C0
ENDCHAR
STARTCHAR parenleft
ENCODING 40
SWIDTH 410 0
DWIDTH 5 0
BBX 4 10 0 -1
BITMAP
70
70
F0
E0
E0
E0
E0
70
70
30
ENDCHAR
STARTCHAR parenright
ENCODING 41
SWIDTH 408 0
DWIDTH 5 0
BBX 4 10 0 -1
BITMAP
E0
F0
50
70
70
70
70
F0
D0
E0
ENDCHAR
STARTCHAR asterisk
ENCODING 42
SWIDTH 664 0
DWIDTH 7 0
BBX 7 7 0 1
BITMAP
18
7C
D6
7C
BE
5C
18
ENDCHAR
STARTCHAR plus
ENCODING 43
SWIDTH 601 0
DWIDTH 7 0
BBX 6 5 0 2
BITMAP
28
28
EC
EC
28
ENDCHAR
STARTCHAR comma
ENCODING 44
SWIDTH 252 0
DWIDTH 3 0
BBX 2 4 0 -2
BITMAP
C0
C0
C0
80
ENDCHAR
STARTCHAR hyphen
ENCODING 45
SWIDTH 473 0
DWIDTH 5 0
BBX 5 2 0 3
BITMAP
F8
F8
ENDCHAR
STARTCHAR period
ENCODING 46
SWIDTH 255 0
DWIDTH 3 0
BBX 2 2 0 0
BITMAP
C0
C0
ENDCHAR
STARTCHAR slash
ENCODING 47
SWIDTH 447 0
DWIDTH 5 0
BBX 5 10 0 -1
BITMAP
18
30
30
30
30
60
60
60
60
C0
ENDCHAR
STARTCHAR zero
ENCODING 48
SWIDTH 843 0
DWIDTH 9 0
BBX 9 9 0 0
BITMAP
3E00
6F00
B780
E280
E380
E280
7580
7F00
3E00
ENDCHAR
STARTCHAR one
ENCODING 49
SWIDTH 426 0
DWIDTH 5 0
BBX 4 9 0 0
BITMAP
F0
F0
70
70
70
70
70
70
70
ENDCHAR
STARTCHAR two
ENCODING 50
SWIDTH 583 0
DWIDTH 6 0
BBX 6 9 0 0
BITMAP
F8
74
5C
1C
38
38
70
8C
FC
ENDCHAR
STARTCHAR three
ENCODING 51
SWIDTH 612 0
DWIDTH 7 0
BBX 6 9 0 0
BITMAP
F8
7C
5C
34
0C
3C
8C
7C
FC
ENDCHAR
STARTCHAR four
ENCODING 52
SWIDTH 622 0
DWIDTH 7 0
BBX 7 9 0 0
BITMAP
1C
28
58
68
FC
00
FE
00
0C
ENDCHAR
STARTCHAR five
ENCODING 53
SWIDTH 691 0
DWIDTH 8 0
BBX 7 9 0 0
BITMAP
7C
7C
60
7C
7E
7E
2E
7E
FC
ENDCHAR
STARTCHAR six
ENCODING 54
SWIDTH 781 0
DWIDTH 9 0
BBX 8 9 0 0
BITMAP
3F
5E
F4
DE
EB
FF
F7
5F
3E
ENDCHAR
STARTCHAR seven
ENCODING 55
SWIDTH 631 0
DWIDTH 7 0
BBX 7 9 0 0
BITMAP
FE
EC
1C
14
1C
18
38
28
38
ENDCHAR
STARTCHAR eight
ENCODING 56
SWIDTH 808 0
DWIDTH 9 0
BBX 9 9 0 0
BITMAP
7F00
FF00
D780
FF00
6700
FB00
E580
DF00
7F00
ENDCHAR
STARTCHAR nine
ENCODING 57
SWIDTH 782 0
DWIDTH 9 0
BBX 8 9 0 0
BITMAP
7E
FB
D7
FB
53
3F
27
5F
7E
ENDCHAR
STARTCHAR colon
ENCODING 58
SWIDTH 262 0
DWIDTH 3 0
BBX 2 5 0 2
BITMAP
C0
C0
00
00
C0
ENDCHAR
STARTCHAR semicolon
ENCODING 59
SWIDTH 261 0
DWIDTH 3 0
BBX 2 7 0 0
BITMAP
C0
C0
00
00
C0
40
C0
ENDCHAR
STARTCHAR less
ENCODING 60
SWIDTH 670 0
DWIDTH 7 0
BBX 7 9 0 0
BITMAP
02
0E
3A
EE
78
D4
2A
1E
02
ENDCHAR
STARTCHAR equal
ENCODING 61
SWIDTH 473 0
DWIDTH 5 0
BBX 5 5 0 2
BITMAP
F8
F8
00
00
F8
ENDCHAR
STARTCHAR greater
ENCODING 62
SWIDTH 670 0
DWIDTH 7 0
BBX 7 9 0 0
BITMAP
80
F0
A8
56
3A
F4
5E
E0
80
ENDCHAR
STARTCHAR question
ENCODING 63
SWIDTH 693 0
DWIDTH 8 0
BBX 7 9 0 0
BITMAP
FC
7E
2E
5E
56
7C
60
00
60
ENDCHAR
STARTCHAR at
ENCODING 64
SWIDTH 1076 0
DWIDTH 12 0
BBX 12 11 0 -1
BITMAP
0E00
3FC0
79C0
6F60
FFE0
DAB0
DEB0
AF60
70E0
2E00
1E00
ENDCHAR
STARTCHAR A
ENCODING 65
SWIDTH 936 0
DWIDTH 10 0
BBX 10 9 0 0
BITMAP
1E00
1A00
3700
3F00
2F00
3380
5E80
BFC0
D1C0
ENDCHAR
STARTCHAR B
ENCODING 66
SWIDTH 862 0
DWIDTH 9 0
BBX 9 9 0 0
BITMAP
FE00
FF80
DD80
D380
DF80
DF80
DE80
D180
DF00
ENDCHAR
STARTCHAR C
ENCODING 67
SWIDTH 852 0
DWIDTH 9 0
BBX 9 9 0 0
BITMAP
3F00
7D80
EB00
D000
A000
D000
B300
6F80
3F00
ENDCHAR
STARTCHAR D
ENCODING 68
SWIDTH 886 0
DWIDTH 10 0
BBX 9 9 0 0
BITMAP
FE00
FF80
DF80
D380
D180
D380
DF80
E280
FF00
ENDCHAR
STARTCHAR E
ENCODING 69
SWIDTH 706 0
DWIDTH 8 0
BBX 7 9 0 0
BITMAP
DE
DE
D0
D0
D8
D8
D0
DE
DE
ENDCHAR
STARTCHAR F
ENCODING 70
SWIDTH 683 0
DWIDTH 8 0
BBX 7 9 0 0
BITMAP
DE
DE
D0
D0
DE
DE
D0
D0
D0
ENDCHAR
STARTCHAR G
ENCODING 71
SWIDTH 908 0
DWIDTH 10 0
BBX 10 9 0 0
BITMAP
3F00
7D80
EB00
D000
A1C0
E1C0
B2C0
6EC0
3FC0
ENDCHAR
STARTCHAR H
ENCODING 72
SWIDTH 901 0
DWIDTH 10 0
BBX 9 9 0 0
BITMAP
D180
D180
D180
D180
DF80
DF80
D180
D180
D180
ENDCHAR
STARTCHAR I
ENCODING 73
SWIDTH 338 0
DWIDTH 4 0
BBX 3 9 0 0
BITMAP
E0
E0
E0
E0
E0
E0
E0
E0
E0
ENDCHAR
STARTCHAR J
ENCODING 74
SWIDTH 434 0
DWIDTH 5 0
BBX 4 9 0 0
BITMAP
30
30
30
30
30
30
70
D0
E0
ENDCHAR
STARTCHAR K
ENCODING 75
SWIDTH 815 0
DWIDTH 9 0
BBX 9 9 0 0
BITMAP
D380
D700
DF00
D600
DC00
DE00
DE00
D700
D780
ENDCHAR
STARTCHAR L
ENCODING 76
SWIDTH 604 0
DWIDTH 7 0
BBX 6 9 0 0
BITMAP
D0
D0
D0
D0
D0
D0
D0
DC
DC
ENDCHAR
STARTCHAR M
ENCODING 77
SWIDTH 920 0
DWIDTH 10 0
BBX 10 9 0 0
BITMAP
E1C0
E2C0
F3C0
FFC0
D5C0
DEC0
DDC0
D1C0
D1C0
ENDCHAR
STARTCHAR N
ENCODING 78
SWIDTH 877 0
DWIDTH 10 0
BBX 9 9 0 0
BITMAP
F380
FB80
FB80
DF80
DB80
DD80
DF80
D580
D780
ENDCHAR
STARTCHAR O
ENCODING 79
SWIDTH 933 0
DWIDTH 10 0
BBX 10 9 0 0
BITMAP
3F00
7D80
EBC0
D140
A1C0
D140
B3C0
6F80
3F00
ENDCHAR
STARTCHAR P
ENCODING 80
SWIDTH 850 0
DWIDTH 9 0
BBX 9 9 0 0
BITMAP
FE00
FD00
DE80
D280
DE80
D380
DE00
D000
D000
ENDCHAR
STARTCHAR Q
ENCODING 81
SWIDTH 937 0
DWIDTH 10 0
BBX 10 10 0 -1
BITMAP
3F00
7D80
EBC0
D140
A1C0
D6C0
B7C0
6F80
3F80
0180
ENDCHAR
STARTCHAR R
ENCODING 82
SWIDTH 843 0
DWIDTH 9 0
BBX 9 9 0 0
BITMAP
FE00
FD00
DE80
DF80
D380
DF00
DF00
D500
D780
ENDCHAR
STARTCHAR S
ENCODING 83
SWIDTH 682 0
DWIDTH 8 0
BBX 7 9 0 0
BITMAP
7E
5A
E4
DC
AE
76
2E
7A
FC
ENDCHAR
STARTCHAR T
ENCODING 84
SWIDTH 591 0
DWIDTH 7 0
BBX 6 9 0 0
BITMAP
FC
FC
38
38
38
38
38
38
38
ENDCHAR
STARTCHAR U
ENCODING 85
SWIDTH 905 0
DWIDTH 10 0
BBX 9 9 0 0
BITMAP
E280
E280
E280
E280
E280
D180
B280
6D80
3F00
ENDCHAR
STARTCHAR V
ENCODING 86
SWIDTH 940 0
DWIDTH 10 0
BBX 10 9 0 0
BITMAP
D1C0
B2C0
5380
3280
2F00
3700
3B00
1D00
1E00
ENDCHAR
STARTCHAR W
ENCODING 87
SWIDTH 1161 0
DWIDTH 13 0
BBX 13 9 0 0
BITMAP
E738
6770
7B70
77B0
7760
2FE0
3560
3560
3DC0
ENDCHAR
STARTCHAR X
ENCODING 88
SWIDTH 876 0
DWIDTH 10 0
BBX 10 9 0 0
BITMAP
F380
5680
7F00
3600
1E00
3D00
2F00
7F80
F3C0
ENDCHAR
STARTCHAR Y
ENCODING 89
SWIDTH 789 0
DWIDTH 9 0
BBX 8 9 0 0
BITMAP
E3
75
76
5A
2C
1C
14
14
14
ENDCHAR
STARTCHAR Z
ENCODING 90
SWIDTH 854 0
DWIDTH 9 0
BBX 9 9 0 0
BITMAP
FF80
FF80
FD80
1E80
2F00
7400
FF80
A800
FF80
ENDCHAR
STARTCHAR bracketleft
ENCODING 91
SWIDTH 320 0
DWIDTH 4 0
BBX 3 10 0 -1
BITMAP
E0
E0
C0
C0
C0
C0
C0
C0
E0
E0
ENDCHAR
STARTCHAR backslash
ENCODING 92
SWIDTH 448 0
DWIDTH 5 0
BBX 5 10 0 -1
BITMAP
C0
60
60
60
60
30
30
30
30
18
ENDCHAR
STARTCHAR bracketright
ENCODING 93
SWIDTH 319 0
DWIDTH 4 0
BBX 3 10 0 -1
BITMAP
E0
A0
60
60
60
60
60
60
A0
E0
ENDCHAR
STARTCHAR asciicircum
ENCODING 94
SWIDTH 475 0
DWIDTH 5 0
BBX 5 5 0 3
BITMAP
20
30
50
D8
C8
ENDCHAR
STARTCHAR underscore
ENCODING 95
SWIDTH 511 0
DWIDTH 6 0
BBX 5 2 0 -2
BITMAP
F8
F8
ENDCHAR
STARTCHAR grave
ENCODING 96
SWIDTH 472 0
DWIDTH 5 0
BBX 5 2 0 8
BITMAP
E0
38
ENDCHAR
STARTCHAR a
ENCODING 97
SWIDTH 832 0
DWIDTH 9 0
BBX 9 8 0 0
BITMAP
3C00
6B00
7F00
E380
A280
7680
7E80
3E80
ENDCHAR
STARTCHAR b
ENCODING 98
SWIDTH 720 0
DWIDTH 8 0
BBX 8 8 0 0
BITMAP
FC
C6
FB
DE
DE
C3
DE
DE
ENDCHAR
STARTCHAR c
ENCODING 99
SWIDTH 736 0
DWIDTH 8 0
BBX 8 8 0 0
BITMAP
3E
7B
7E
E0
A0
74
7F
3E
ENDCHAR
STARTCHAR d
ENCODING 100
SWIDTH 833 0
DWIDTH 9 0
BBX 9 8 0 0
BITMAP
FC00
C300
FF00
D280
D280
DF80
E300
FE00
ENDCHAR
STARTCHAR e
ENCODING 101
SWIDTH 666 0
DWIDTH 7 0
BBX 7 8 0 0
BITMAP
DE
D0
DE
DE
DE
D0
DE
DE
ENDCHAR
STARTCHAR f
ENCODING 102
SWIDTH 625 0
DWIDTH 7 0
BBX 7 8 0 0
BITMAP
DE
D0
DE
DC
DC
D0
D0
D0
ENDCHAR
STARTCHAR g
ENCODING 103
SWIDTH 827 0
DWIDTH 9 0
BBX 9 8 0 0
BITMAP
3E00
7B00
7E00
E000
A380
7580
7D80
3F80
ENDCHAR
STARTCHAR h
ENCODING 104
SWIDTH 830 0
DWIDTH 9 0
BBX 9 8 0 0
BITMAP
D380
D380
D380
DF80
DF80
D380
D380
D380
ENDCHAR
STARTCHAR i
ENCODING 105
SWIDTH 337 0
DWIDTH 4 0
BBX 3 8 0 0
BITMAP
E0
E0
E0
E0
E0
E0
E0
E0
ENDCHAR
STARTCHAR j
ENCODING 106
SWIDTH 393 0
DWIDTH 4 0
BBX 4 9 0 -1
BITMAP
50
50
50
50
50
50
D0
A0
C0
ENDCHAR
STARTCHAR k
ENCODING 107
SWIDTH 801 0
DWIDTH 9 0
BBX 9 8 0 0
BITMAP
D780
D700
DE00
DA00
DE00
DE00
DB00
D780
ENDCHAR
STARTCHAR l
ENCODING 108
SWIDTH 583 0
DWIDTH 6 0
BBX 6 8 0 0
BITMAP
D0
D0
D0
D0
D0
D0
DC
DC
ENDCHAR
STARTCHAR m
ENCODING 109
SWIDTH 1167 0
DWIDTH 13 0
BBX 12 8 0 0
BITMAP
3FE0
5BB0
7FF0
E530
E530
E530
E530
E530
ENDCHAR
STARTCHAR n
ENCODING 110
SWIDTH 787 0
DWIDTH 9 0
BBX 8 8 0 0
BITMAP
F3
EB
FB
FF
DB
CF
CB
CD
ENDCHAR
STARTCHAR o
ENCODING 111
SWIDTH 833 0
DWIDTH 9 0
BBX 9 8 0 0
BITMAP
3E00
7B00
7F00
E280
A280
7780
7F00
3E00
ENDCHAR
STARTCHAR p
ENCODING 112
SWIDTH 781 0
DWIDTH 9 0
BBX 8 8 0 0
BITMAP
FC
C3
FF
D7
DF
DA
D4
D0
ENDCHAR
STARTCHAR q
ENCODING 113
SWIDTH 788 0
DWIDTH 9 0
BBX 8 9 0 -1
BITMAP
1F
61
7F
A7
D7
FF
7F
07
07
ENDCHAR
STARTCHAR r
ENCODING 114
SWIDTH 831 0
DWIDTH 9 0
BBX 9 8 0 0
BITMAP
FE00
C300
FD80
D280
DF80
D100
DE00
D500
ENDCHAR
STARTCHAR s
ENCODING 115
SWIDTH 683 0
DWIDTH 8 0
BBX 7 8 0 0
BITMAP
3C
DE
A0
DC
7E
06
7E
FC
ENDCHAR
STARTCHAR t
ENCODING 116
SWIDTH 588 0
DWIDTH 6 0
BBX 6 8 0 0
BITMAP
FC
00
FC
38
38
38
38
38
ENDCHAR
STARTCHAR u
ENCODING 117
SWIDTH 795 0
DWIDTH 9 0
BBX 8 8 0 0
BITMAP
E3
E3
E3
E3
E3
77
5F
3E
ENDCHAR
STARTCHAR v
ENCODING 118
SWIDTH 855 0
DWIDTH 9 0
BBX 9 8 0 0
BITMAP
E380
B380
7700
7F00
3700
3A00
1A00
1C00
ENDCHAR
STARTCHAR w
ENCODING 119
SWIDTH 1129 0
DWIDTH 12 0
BBX 12 8 0 0
BITMAP
E770
E770
E770
E770
E770
FB70
5DB0
3FE0
ENDCHAR
STARTCHAR x
ENCODING 120
SWIDTH 790 0
DWIDTH 9 0
BBX 8 8 0 0
BITMAP
F7
5F
7E
3A
3C
36
7F
F7
ENDCHAR
STARTCHAR y
ENCODING 121
SWIDTH 733 0
DWIDTH 8 0
BBX 8 8 0 0
BITMAP
E5
B6
6A
7C
3C
28
28
28
ENDCHAR
STARTCHAR z
ENCODING 122
SWIDTH 714 0
DWIDTH 8 0
BBX 8 8 0 0
BITMAP
FF
0A
FE
34
28
78
F6
EE
ENDCHAR
STARTCHAR braceleft
ENCODING 123
SWIDTH 396 0
DWIDTH 4 0
BBX 4 11 0 -2
BITMAP
70
70
60
60
E0
20
E0
60
60
50
70
ENDCHAR
STARTCHAR bar
ENCODING 124
SWIDTH 266 0
DWIDTH 3 0
BBX 2 10 0 -1
BITMAP
C0
C0
C0
C0
C0
C0
C0
C0
C0
C0
ENDCHAR
STARTCHAR braceright
ENCODING 125
SWIDTH 396 0
DWIDTH 4 0
BBX 4 11 0 -2
BITMAP
E0
D0
60
60
30
30
60
60
60
D0
E0
ENDCHAR
STARTCHAR asciitilde
ENCODING 126
SWIDTH 665 0
DWIDTH 7 0
BBX 7 2 0 6
BITMAP
FE
FC
ENDCHAR
STARTCHAR uni00A0
ENCODING 160
SWIDTH 108 0
DWIDTH 1 0
BBX 1 1 0 0
BITMAP
00
ENDCHAR
STARTCHAR exclamdown
ENCODING 161
SWIDTH 336 0
DWIDTH 4 0
BBX 3 9 0 0
BITMAP
E0
E0
E0
E0
E0
E0
E0
E0
E0
ENDCHAR
STARTCHAR cent
ENCODING 162
SWIDTH 708 0
DWIDTH 8 0
BBX 8 11 0 -1
BITMAP
18
08
7E
77
FC
A0
F4
5F
3A
14
18
ENDCHAR
STARTCHAR sterling
ENCODING 163
SWIDTH 689 0
DWIDTH 8 0
BBX 7 9 0 0
BITMAP
7E
FA
D4
FC
E0
DC
E0
FC
FC
ENDCHAR
STARTCHAR currency
ENCODING 164
SWIDTH 715 0
DWIDTH 8 0
BBX 8 8 0 0
BITMAP
C7
7E
7C
42
42
64
BE
47
ENDCHAR
STARTCHAR yen
ENCODING 165
SWIDTH 796 0
DWIDTH 9 0
BBX 9 9 0 0
BITMAP
E380
7500
7600
3E00
3C00
1400
7600
1400
1400
ENDCHAR
STARTCHAR brokenbar
ENCODING 166
SWIDTH 263 0
DWIDTH 3 0
BBX 2 10 0 -1
BITMAP
C0
C0
C0
C0
00
00
C0
C0
C0
C0
ENDCHAR
STARTCHAR section
ENCODING 167
SWIDTH 108 0
DWIDTH 1 0
BBX 1 1 0 0
BITMAP
00
ENDCHAR
STARTCHAR dieresis
ENCODING 168
SWIDTH 556 0
DWIDTH 6 0
BBX 6 1 0 8
BITMAP
D4
ENDCHAR
STARTCHAR copyright
ENCODING 169
SWIDTH 869 0
DWIDTH 10 0
BBX 9 9 0 0
BITMAP
3E00
5D00
A280
A080
A080
A080
5E80
2300
1C00
ENDCHAR
STARTCHAR ordfeminine
ENCODING 170
SWIDTH 833 0
DWIDTH 9 0
BBX 9 8 0 0
BITMAP
1E00
7B00
EF00
D280
E280
7580
7D80
3E80
ENDCHAR
STARTCHAR guillemotleft
ENCODING 171
SWIDTH 911 0
DWIDTH 10 0
BBX 10 6 0 1
BITMAP
18C0
2B40
F780
D680
2940
18C0
ENDCHAR
STARTCHAR logicalnot
ENCODING 172
SWIDTH 718 0
DWIDTH 8 0
BBX 7 4 0 2
BITMAP
FE
FE
06
06
ENDCHAR
STARTCHAR registered
ENCODING 174
SWIDTH 869 0
DWIDTH 10 0
BBX 9 9 0 0
BITMAP
3E00
4100
9E80
9280
9C80
9480
5280
2300
1C00
ENDCHAR
STARTCHAR degree
ENCODING 176
SWIDTH 330 0
DWIDTH 4 0
BBX 3 2 0 9
BITMAP
E0
E0
ENDCHAR
STARTCHAR plusminus
ENCODING 177
SWIDTH 598 0
DWIDTH 7 0
BBX 6 7 0 0
BITMAP
28
28
EC
EC
28
7C
7C
ENDCHAR
STARTCHAR uni00B2
ENCODING 178
SWIDTH 435 0
DWIDTH 5 0
BBX 5 7 0 2
BITMAP
F0
38
10
20
60
40
F0
ENDCHAR
STARTCHAR uni00B3
ENCODING 179
SWIDTH 515 0
DWIDTH 6 0
BBX 5 8 0 1
BITMAP
F0
F8
18
70
68
18
78
E0
ENDCHAR
STARTCHAR acute
ENCODING 180
SWIDTH 472 0
DWIDTH 5 0
BBX 5 2 0 8
BITMAP
38
E0
ENDCHAR
STARTCHAR uni00B5
ENCODING 181
SWIDTH 802 0
DWIDTH 9 0
BBX 7 9 1 -1
BITMAP
A6
A6
A6
A6
A6
AE
BE
B4
A8
ENDCHAR
STARTCHAR paragraph
ENCODING 182
SWIDTH 676 0
DWIDTH 7 0
BBX 7 9 0 -1
BITMAP
3E
66
FE
EE
DE
7E
0E
0E
0E
ENDCHAR
STARTCHAR periodcentered
ENCODING 183
SWIDTH 260 0
DWIDTH 3 0
BBX 2 2 0 4
BITMAP
C0
C0
ENDCHAR
STARTCHAR cedilla
ENCODING 184
SWIDTH 321 0
DWIDTH 4 0
BBX 3 3 0 -4
BITMAP
E0
C0
E0
ENDCHAR
STARTCHAR uni00B9
ENCODING 185
SWIDTH 359 0
DWIDTH 4 0
BBX 3 6 0 3
BITMAP
E0
E0
20
20
20
20
ENDCHAR
STARTCHAR ordmasculine
ENCODING 186
SWIDTH 835 0
DWIDTH 9 0
BBX 9 8 0 0
BITMAP
3E00
7B00
BF80
E280
E280
7780
7F00
3E00
ENDCHAR
STARTCHAR guillemotright
ENCODING 187
SWIDTH 912 0
DWIDTH 10 0
BBX 10 6 0 1
BITMAP
8600
F580
7BC0
5AC0
A500
C600
ENDCHAR
STARTCHAR onequarter
ENCODING 188
SWIDTH 1236 0
DWIDTH 14 0
BBX 13 10 0 -1
BITMAP
E300
E300
6350
6660
66E0
66E8
0610
0CF8
0C08
0C00
ENDCHAR
STARTCHAR onehalf
ENCODING 189
SWIDTH 1154 0
DWIDTH 13 0
BBX 12 10 0 -1
BITMAP
E300
E300
63F0
6670
6630
6620
0660
0CC0
0CF0
0C00
ENDCHAR
STARTCHAR threequarters
ENCODING 190
SWIDTH 1345 0
DWIDTH 15 0
BBX 15 10 0 -1
BITMAP
F0C0
F980
1998
71B8
69B0
1B3C
7B42
E37E
030C
0600
ENDCHAR
STARTCHAR questiondown
ENCODING 191
SWIDTH 693 0
DWIDTH 8 0
BBX 7 9 0 0
BITMAP
FC
7E
2E
5E
56
7C
60
00
60
ENDCHAR
STARTCHAR Agrave
ENCODING 192
SWIDTH 936 0
DWIDTH 10 0
BBX 10 12 0 0
BITMAP
3000
0C00
0000
1E00
1A00
3700
3F00
2F00
3380
5E80
BFC0
D1C0
ENDCHAR
STARTCHAR Aacute
ENCODING 193
SWIDTH 936 0
DWIDTH 10 0
BBX 10 12 0 0
BITMAP
0380
0E00
0000
1E00
1A00
3700
3F00
2F00
3380
5E80
BFC0
D1C0
ENDCHAR
STARTCHAR Acircumflex
ENCODING 194
SWIDTH 936 0
DWIDTH 10 0
BBX 10 13 0 0
BITMAP
0C00
0C00
1E00
0000
1E00
1A00
3700
3F00
2F00
3380
5E80
BFC0
D1C0
ENDCHAR
STARTCHAR Atilde
ENCODING 195
SWIDTH 936 0
DWIDTH 10 0
BBX 10 12 0 0
BITMAP
3F00
2F00
0000
1E00
1A00
3700
3F00
2F00
3380
5E80
BFC0
D1C0
ENDCHAR
STARTCHAR Adieresis
ENCODING 196
SWIDTH 936 0
DWIDTH 10 0
BBX 10 11 0 0
BITMAP
1300
0000
1E00
1A00
3700
3F00
2F00
3380
5E80
BFC0
D1C0
ENDCHAR
STARTCHAR Aring
ENCODING 197
SWIDTH 936 0
DWIDTH 10 0
BBX 10 12 0 0
BITMAP
0E00
0E00
0000
1E00
1A00
3700
3F00
2F00
3380
5E80
BFC0
D1C0
ENDCHAR
STARTCHAR AE
ENCODING 198
SWIDTH 1198 0
DWIDTH 13 0
BBX 13 9 0 0
BITMAP
1FF8
1FF8
3700
3F00
2FF0
32F0
5E80
BFF8
D178
ENDCHAR
STARTCHAR Ccedilla
ENCODING 199
SWIDTH 852 0
DWIDTH 9 0
BBX 9 13 0 -4
BITMAP
3F00
7D80
EB00
D000
A000
D000
B300
6F80
3D00
0200
1C00
1000
1C00
ENDCHAR
STARTCHAR Egrave
ENCODING 200
SWIDTH 706 0
DWIDTH 8 0
BBX 7 12 0 0
BITMAP
E0
38
00
DE
DE
D0
D0
D8
D8
D0
DE
DE
ENDCHAR
STARTCHAR Eacute
ENCODING 201
SWIDTH 706 0
DWIDTH 8 0
BBX 7 12 0 0
BITMAP
06
18
00
DE
DE
D0
D0
D8
D8
D0
DE
DE
ENDCHAR
STARTCHAR Ecircumflex
ENCODING 202
SWIDTH 706 0
DWIDTH 8 0
BBX 7 13 0 0
BITMAP
18
28
3C
00
DE
DE
D0
D0
D8
D8
D0
DE
DE
ENDCHAR
STARTCHAR Edieresis
ENCODING 203
SWIDTH 706 0
DWIDTH 8 0
BBX 7 11 0 0
BITMAP
56
00
DE
DE
D0
D0
D8
D8
D0
DE
DE
ENDCHAR
STARTCHAR Igrave
ENCODING 204
SWIDTH 338 0
DWIDTH 4 0
BBX 5 12 -2 0
BITMAP
E0
38
00
38
38
38
38
38
38
38
38
38
ENDCHAR
STARTCHAR Iacute
ENCODING 205
SWIDTH 338 0
DWIDTH 4 0
BBX 5 12 0 0
BITMAP
18
60
00
D0
D0
D0
D0
D0
D0
D0
D0
D0
ENDCHAR
STARTCHAR Icircumflex
ENCODING 206
SWIDTH 338 0
DWIDTH 4 0
BBX 4 13 0 0
BITMAP
60
E0
F0
00
D0
D0
D0
D0
D0
D0
D0
D0
D0
ENDCHAR
STARTCHAR Idieresis
ENCODING 207
SWIDTH 338 0
DWIDTH 4 0
BBX 5 11 -1 0
BITMAP
C8
00
68
68
68
68
68
68
68
68
68
ENDCHAR
STARTCHAR Eth
ENCODING 208
SWIDTH 905 0
DWIDTH 10 0
BBX 10 9 0 0
BITMAP
FE00
7D80
7F80
0380
F2C0
F1C0
7F80
4380
FE00
ENDCHAR
STARTCHAR Ntilde
ENCODING 209
SWIDTH 877 0
DWIDTH 10 0
BBX 9 12 0 0
BITMAP
3F00
3F00
0000
F380
FB80
FB80
DF80
DB80
DD80
DF80
D580
D780
ENDCHAR
STARTCHAR Ograve
ENCODING 210
SWIDTH 933 0
DWIDTH 10 0
BBX 10 12 0 0
BITMAP
3000
0C00
0800
3700
7D80
EBC0
D140
A1C0
D140
B3C0
6F80
3F00
ENDCHAR
STARTCHAR Oacute
ENCODING 211
SWIDTH 933 0
DWIDTH 10 0
BBX 10 12 0 0
BITMAP
0380
0E00
0800
3700
7D80
EBC0
D140
A1C0
D140
B3C0
6F80
3F00
ENDCHAR
STARTCHAR Ocircumflex
ENCODING 212
SWIDTH 933 0
DWIDTH 10 0
BBX 10 13 0 0
BITMAP
0C00
0A00
1E00
0800
3700
7D80
EBC0
D140
A1C0
D140
B3C0
6F80
3F00
ENDCHAR
STARTCHAR Otilde
ENCODING 213
SWIDTH 933 0
DWIDTH 10 0
BBX 10 12 0 0
BITMAP
3F00
2F00
0800
3700
7D80
EBC0
D140
A1C0
D140
B3C0
6F80
3F00
ENDCHAR
STARTCHAR Odieresis
ENCODING 214
SWIDTH 933 0
DWIDTH 10 0
BBX 10 11 0 0
BITMAP
1500
0800
3700
7D80
EBC0
D140
A1C0
D140
B3C0
6F80
3F00
ENDCHAR
STARTCHAR multiply
ENCODING 215
SWIDTH 790 0
DWIDTH 9 0
BBX 8 8 0 0
BITMAP
F7
5F
7E
3A
3C
36
7F
F7
ENDCHAR
STARTCHAR Oslash
ENCODING 216
SWIDTH 938 0
DWIDTH 10 0
BBX 10 12 0 -2
BITMAP
0B80
3700
7D80
EBC0
D140
A1C0
D140
B3C0
6F80
3F00
7000
2000
ENDCHAR
STARTCHAR Ugrave
ENCODING 217
SWIDTH 905 0
DWIDTH 10 0
BBX 9 12 0 0
BITMAP
7000
0C00
0000
E280
E280
E280
E280
E280
D180
B280
6D80
3F00
ENDCHAR
STARTCHAR Uacute
ENCODING 218
SWIDTH 905 0
DWIDTH 10 0
BBX 9 12 0 0
BITMAP
0380
0C00
0000
E280
E280
E280
E280
E280
D180
B280
6D80
3F00
ENDCHAR
STARTCHAR Ucircumflex
ENCODING 219
SWIDTH 905 0
DWIDTH 10 0
BBX 9 13 0 0
BITMAP
0C00
1400
1E00
0000
E280
E280
E280
E280
E280
D180
B280
6D80
3F00
ENDCHAR
STARTCHAR Udieresis
ENCODING 220
SWIDTH 905 0
DWIDTH 10 0
BBX 9 11 0 0
BITMAP
3300
0000
E280
E280
E280
E280
E280
D180
B280
6D80
3F00
ENDCHAR
STARTCHAR Yacute
ENCODING 221
SWIDTH 789 0
DWIDTH 9 0
BBX 8 12 0 0
BITMAP
07
1C
00
E3
75
76
5A
2C
1C
14
14
14
ENDCHAR
STARTCHAR Thorn
ENCODING 222
SWIDTH 798 0
DWIDTH 9 0
BBX 8 10 0 -1
BITMAP
D0
DE
DF
D7
D3
D7
DF
DA
D4
D0
ENDCHAR
STARTCHAR germandbls
ENCODING 223
SWIDTH 826 0
DWIDTH 9 0
BBX 9 10 0 -1
BITMAP
7F00
FF00
F780
DF00
FF00
E280
DD80
E300
FE00
E000
ENDCHAR
STARTCHAR agrave
ENCODING 224
SWIDTH 832 0
DWIDTH 9 0
BBX 9 11 0 0
BITMAP
7000
3800
0000
3C00
6B00
7F00
E380
A280
7680
7E80
3E80
ENDCHAR
STARTCHAR aacute
ENCODING 225
SWIDTH 832 0
DWIDTH 9 0
BBX 9 11 0 0
BITMAP
0700
1C00
0000
3C00
6B00
7F00
E380
A280
7680
7E80
3E80
ENDCHAR
STARTCHAR acircumflex
ENCODING 226
SWIDTH 832 0
DWIDTH 9 0
BBX 9 11 0 0
BITMAP
0800
1C00
1C00
3400
6B00
7F00
E380
A280
7680
7E80
3E80
ENDCHAR
STARTCHAR atilde
ENCODING 227
SWIDTH 832 0
DWIDTH 9 0
BBX 9 10 0 0
BITMAP
7F00
5E00
3400
6B00
7F00
E380
A280
7680
7E80
3E80
ENDCHAR
STARTCHAR adieresis
ENCODING 228
SWIDTH 832 0
DWIDTH 9 0
BBX 9 10 0 0
BITMAP
3600
0000
3C00
6B00
7F00
E380
A280
7680
7E80
3E80
ENDCHAR
STARTCHAR aring
ENCODING 229
SWIDTH 832 0
DWIDTH 9 0
BBX 9 11 0 0
BITMAP
1C00
1400
0800
3C00
6B00
7F00
E380
A280
7680
7E80
3E80
ENDCHAR
STARTCHAR ae
ENCODING 230
SWIDTH 1166 0
DWIDTH 13 0
BBX 12 8 0 0
BITMAP
3EF0
6B80
7FF0
E3F0
A2F0
7680
7EF0
3EF0
ENDCHAR
STARTCHAR ccedilla
ENCODING 231
SWIDTH 736 0
DWIDTH 8 0
BBX 8 12 0 -4
BITMAP
3E
7B
7E
E0
A0
74
7F
2A
14
18
10
18
ENDCHAR
STARTCHAR egrave
ENCODING 232
SWIDTH 666 0
DWIDTH 7 0
BBX 7 11 0 0
BITMAP
E0
38
00
DE
D0
DE
DE
DE
D0
DE
DE
ENDCHAR
STARTCHAR eacute
ENCODING 233
SWIDTH 666 0
DWIDTH 7 0
BBX 7 11 0 0
BITMAP
0E
1C
00
DE
D0
DE
DE
DE
D0
DE
DE
ENDCHAR
STARTCHAR ecircumflex
ENCODING 234
SWIDTH 666 0
DWIDTH 7 0
BBX 7 11 0 0
BITMAP
18
28
38
DE
D0
DE
DE
DE
D0
DE
DE
ENDCHAR
STARTCHAR edieresis
ENCODING 235
SWIDTH 666 0
DWIDTH 7 0
BBX 7 10 0 0
BITMAP
6C
00
DE
D0
DE
DE
DE
D0
DE
DE
ENDCHAR
STARTCHAR igrave
ENCODING 236
SWIDTH 337 0
DWIDTH 4 0
BBX 5 11 -2 0
BITMAP
E0
38
00
38
38
38
38
38
38
38
38
ENDCHAR
STARTCHAR iacute
ENCODING 237
SWIDTH 337 0
DWIDTH 4 0
BBX 5 11 0 0
BITMAP
18
60
00
D0
D0
D0
D0
D0
D0
D0
D0
ENDCHAR
STARTCHAR icircumflex
ENCODING 238
SWIDTH 337 0
DWIDTH 4 0
BBX 4 11 0 0
BITMAP
60
E0
E0
D0
D0
D0
D0
D0
D0
D0
D0
ENDCHAR
STARTCHAR idieresis
ENCODING 239
SWIDTH 337 0
DWIDTH 4 0
BBX 5 10 -1 0
BITMAP
C8
00
68
68
68
68
68
68
68
68
ENDCHAR
STARTCHAR eth
ENCODING 240
SWIDTH 783 0
DWIDTH 9 0
BBX 8 9 0 0
BITMAP
7E
7B
15
1F
7F
FF
A7
5F
7E
ENDCHAR
STARTCHAR ntilde
ENCODING 241
SWIDTH 787 0
DWIDTH 9 0
BBX 8 10 0 0
BITMAP
7F
5E
B3
EB
FB
FF
DB
CF
CB
CD
ENDCHAR
STARTCHAR ograve
ENCODING 242
SWIDTH 833 0
DWIDTH 9 0
BBX 9 11 0 0
BITMAP
7000
1C00
0000
3E00
7B00
7F00
E280
A280
7780
7F00
3E00
ENDCHAR
STARTCHAR oacute
ENCODING 243
SWIDTH 833 0
DWIDTH 9 0
BBX 9 11 0 0
BITMAP
0700
1E00
0000
3E00
7B00
7F00
E280
A280
7780
7F00
3E00
ENDCHAR
STARTCHAR ocircumflex
ENCODING 244
SWIDTH 833 0
DWIDTH 9 0
BBX 9 11 0 0
BITMAP
0800
1C00
1400
2E00
7B00
7F00
E280
A280
7780
7F00
3E00
ENDCHAR
STARTCHAR otilde
ENCODING 245
SWIDTH 833 0
DWIDTH 9 0
BBX 9 10 0 0
BITMAP
7D00
7E00
2600
7B00
7F00
E280
A280
7780
7F00
3E00
ENDCHAR
STARTCHAR odieresis
ENCODING 246
SWIDTH 833 0
DWIDTH 9 0
BBX 9 10 0 0
BITMAP
3600
0000
3E00
7B00
7F00
E280
A280
7780
7F00
3E00
ENDCHAR
STARTCHAR divide
ENCODING 247
SWIDTH 260 0
DWIDTH 3 0
BBX 3 7 0 0
BITMAP
C0
C0
00
E0
00
C0
C0
ENDCHAR
STARTCHAR oslash
ENCODING 248
SWIDTH 832 0
DWIDTH 9 0
BBX 9 10 0 -1
BITMAP
0200
3F00
7B00
7F00
E280
A280
7780
7F00
6A00
3400
ENDCHAR
STARTCHAR ugrave
ENCODING 249
SWIDTH 795 0
DWIDTH 9 0
BBX 8 11 0 0
BITMAP
70
38
00
E3
E3
E3
E3
E3
77
5F
3E
ENDCHAR
STARTCHAR uacute
ENCODING 250
SWIDTH 795 0
DWIDTH 9 0
BBX 8 11 0 0
BITMAP
07
1C
00
E3
E3
E3
E3
E3
77
5F
3E
ENDCHAR
STARTCHAR ucircumflex
ENCODING 251
SWIDTH 795 0
DWIDTH 9 0
BBX 8 11 0 0
BITMAP
18
1C
3C
E3
E3
E3
E3
E3
77
5F
3E
ENDCHAR
STARTCHAR udieresis
ENCODING 252
SWIDTH 795 0
DWIDTH 9 0
BBX 8 10 0 0
BITMAP
56
00
E3
E3
E3
E3
E3
77
5F
3E
ENDCHAR
STARTCHAR yacute
ENCODING 253
SWIDTH 733 0
DWIDTH 8 0
BBX 8 11 0 0
BITMAP
07
18
00
E5
B6
6A
7C
3C
28
28
28
ENDCHAR
STARTCHAR thorn
ENCODING 254
SWIDTH 833 0
DWIDTH 9 0
BBX 9 10 0 -1
BITMAP
D000
D000
DC00
DF00
D380
DE80
D380
DF00
D000
D000
ENDCHAR
STARTCHAR ydieresis
ENCODING 255
SWIDTH 733 0
DWIDTH 8 0
BBX 8 10 0 0
BITMAP
66
00
E5
B6
6A
7C
3C
28
28
28
ENDCHAR
STARTCHAR Amacron
ENCODING 256
SWIDTH 936 0
DWIDTH 10 0
BBX 10 9 0 0
BITMAP
1E00
1A00
3700
3F00
2F00
3380
5E80
BFC0
D1C0
ENDCHAR
STARTCHAR amacron
ENCODING 257
SWIDTH 832 0
DWIDTH 9 0
BBX 9 8 0 0
BITMAP
3C00
6B00
7F00
E380
A280
7680
7E80
3E80
ENDCHAR
STARTCHAR Abreve
ENCODING 258
SWIDTH 936 0
DWIDTH 10 0
BBX 10 11 0 0
BITMAP
0E00
0000
1E00
1A00
3700
3F00
2F00
3380
5E80
BFC0
D1C0
ENDCHAR
STARTCHAR abreve
ENCODING 259
SWIDTH 832 0
DWIDTH 9 0
BBX 9 10 0 0
BITMAP
1C00
0000
3C00
6B00
7F00
E380
A280
7680
7E80
3E80
ENDCHAR
STARTCHAR Aogonek
ENCODING 260
SWIDTH 937 0
DWIDTH 10 0
BBX 10 12 0 -3
BITMAP
1E00
1D00
1B00
3F00
3B00
3A80
5780
5EC0
E1C0
1800
1000
1800
ENDCHAR
STARTCHAR aogonek
ENCODING 261
SWIDTH 832 0
DWIDTH 9 0
BBX 9 11 0 -3
BITMAP
3C00
6B00
7F00
E380
A280
7680
7E80
3680
2800
1000
1000
ENDCHAR
STARTCHAR Cacute
ENCODING 262
SWIDTH 852 0
DWIDTH 9 0
BBX 9 12 0 0
BITMAP
0380
0E00
0800
3700
7D80
EB00
D000
A000
D000
B300
6F80
3F00
ENDCHAR
STARTCHAR cacute
ENCODING 263
SWIDTH 736 0
DWIDTH 8 0
BBX 8 11 0 0
BITMAP
07
1E
00
3E
7B
7E
E0
A0
74
7F
3E
ENDCHAR
STARTCHAR Cdotaccent
ENCODING 266
SWIDTH 852 0
DWIDTH 9 0
BBX 9 12 0 0
BITMAP
0C00
0C00
0800
3700
7D80
EB00
D000
A000
D000
B300
6F80
3F00
ENDCHAR
STARTCHAR cdotaccent
ENCODING 267
SWIDTH 736 0
DWIDTH 8 0
BBX 8 11 0 0
BITMAP
0C
0C
00
3E
7B
7E
E0
A0
74
7F
3E
ENDCHAR
STARTCHAR Ccaron
ENCODING 268
SWIDTH 852 0
DWIDTH 9 0
BBX 9 13 0 0
BITMAP
1E00
0A00
0C00
0800
3700
7D80
EB00
D000
A000
D000
B300
6F80
3F00
ENDCHAR
STARTCHAR ccaron
ENCODING 269
SWIDTH 736 0
DWIDTH 8 0
BBX 8 11 0 0
BITMAP
14
1C
08
36
7B
7E
E0
A0
74
7F
3E
ENDCHAR
STARTCHAR Dcaron
ENCODING 270
SWIDTH 886 0
DWIDTH 10 0
BBX 9 13 0 0
BITMAP
1E00
0C00
0C00
0000
FE00
FF80
DF80
D380
D180
D380
DF80
E280
FF00
ENDCHAR
STARTCHAR dcaron
ENCODING 271
SWIDTH 1084 0
DWIDTH 12 0
BBX 12 8 0 0
BITMAP
FC30
C330
FF20
D2C0
D280
DF80
E300
FE00
ENDCHAR
STARTCHAR Dcroat
ENCODING 272
SWIDTH 888 0
DWIDTH 10 0
BBX 10 9 -1 0
BITMAP
7F00
7FC0
6FC0
69C0
ECC0
69C0
6FC0
7140
7F80
ENDCHAR
STARTCHAR dcroat
ENCODING 273
SWIDTH 833 0
DWIDTH 9 0
BBX 10 8 -1 0
BITMAP
7E00
6180
7F80
6940
ED40
6FC0
7180
7F00
ENDCHAR
STARTCHAR Emacron
ENCODING 274
SWIDTH 706 0
DWIDTH 8 0
BBX 7 9 0 0
BITMAP
DE
DE
D0
D0
D8
D8
D0
DE
DE
ENDCHAR
STARTCHAR emacron
ENCODING 275
SWIDTH 666 0
DWIDTH 7 0
BBX 7 8 0 0
BITMAP
DE
D0
DE
DE
DE
D0
DE
DE
ENDCHAR
STARTCHAR Ebreve
ENCODING 276
SWIDTH 706 0
DWIDTH 8 0
BBX 7 11 0 0
BITMAP
3C
00
DE
DE
D0
D0
D8
D8
D0
DE
DE
ENDCHAR
STARTCHAR ebreve
ENCODING 277
SWIDTH 666 0
DWIDTH 7 0
BBX 7 10 0 0
BITMAP
38
00
DE
D0
DE
DE
DE
D0
DE
DE
ENDCHAR
STARTCHAR Edotaccent
ENCODING 278
SWIDTH 706 0
DWIDTH 8 0
BBX 7 12 0 0
BITMAP
18
18
00
DE
DE
D0
D0
D8
D8
D0
DE
DE
ENDCHAR
STARTCHAR edotaccent
ENCODING 279
SWIDTH 666 0
DWIDTH 7 0
BBX 7 10 0 0
BITMAP
18
18
DE
D0
DE
DE
DE
D0
DE
DE
ENDCHAR
STARTCHAR Eogonek
ENCODING 280
SWIDTH 706 0
DWIDTH 8 0
BBX 7 12 0 -3
BITMAP
DE
DE
D0
D0
D8
D8
D0
DE
DE
06
06
06
ENDCHAR
STARTCHAR eogonek
ENCODING 281
SWIDTH 666 0
DWIDTH 7 0
BBX 7 11 0 -3
BITMAP
DE
D0
DE
DE
DE
D0
DE
DE
06
04
06
ENDCHAR
STARTCHAR Ecaron
ENCODING 282
SWIDTH 706 0
DWIDTH 8 0
BBX 7 13 0 0
BITMAP
3C
18
18
00
DE
DE
D0
D0
D8
D8
D0
DE
DE
ENDCHAR
STARTCHAR ecaron
ENCODING 283
SWIDTH 666 0
DWIDTH 7 0
BBX 7 11 0 0
BITMAP
38
28
10
DE
D0
DE
DE
DE
D0
DE
DE
ENDCHAR
STARTCHAR Gbreve
ENCODING 286
SWIDTH 908 0
DWIDTH 10 0
BBX 10 11 0 0
BITMAP
1E00
0800
3700
7D80
EB00
D000
A1C0
E1C0
B2C0
6EC0
3FC0
ENDCHAR
STARTCHAR gbreve
ENCODING 287
SWIDTH 827 0
DWIDTH 9 0
BBX 9 10 0 0
BITMAP
1C00
0000
3E00
7B00
7E00
E000
A380
7580
7D80
3F80
ENDCHAR
STARTCHAR Gdotaccent
ENCODING 288
SWIDTH 908 0
DWIDTH 10 0
BBX 10 12 0 0
BITMAP
0C00
0C00
0800
3700
7D80
EB00
D000
A1C0
E1C0
B2C0
6EC0
3FC0
ENDCHAR
STARTCHAR gdotaccent
ENCODING 289
SWIDTH 827 0
DWIDTH 9 0
BBX 9 11 0 0
BITMAP
0C00
0C00
0000
3E00
7B00
7E00
E000
A380
7580
7D80
3F80
ENDCHAR
STARTCHAR Gcommaaccent
ENCODING 290
SWIDTH 908 0
DWIDTH 10 0
BBX 10 13 0 -4
BITMAP
3F00
7D80
EB00
D000
A1C0
E1C0
B2C0
6EC0
3DC0
0200
0C00
0400
0C00
ENDCHAR
STARTCHAR gcommaaccent
ENCODING 291
SWIDTH 827 0
DWIDTH 9 0
BBX 9 8 0 0
BITMAP
3E00
7B00
7E00
E000
A380
7580
7D80
3F80
ENDCHAR
STARTCHAR Hcircumflex
ENCODING 292
SWIDTH 901 0
DWIDTH 10 0
BBX 9 13 0 0
BITMAP
0C00
1400
1E00
0000
D180
D180
D180
D180
DF80
DF80
D180
D180
D180
ENDCHAR
STARTCHAR hcircumflex
ENCODING 293
SWIDTH 830 0
DWIDTH 9 0
BBX 9 11 0 0
BITMAP
0800
1400
1400
D380
D380
D380
DF80
DF80
D380
D380
D380
ENDCHAR
STARTCHAR Hbar
ENCODING 294
SWIDTH 901 0
DWIDTH 10 0
BBX 10 9 0 0
BITMAP
D180
DDC0
D180
D180
DF80
DF80
D180
D180
D180
ENDCHAR
STARTCHAR hbar
ENCODING 295
SWIDTH 830 0
DWIDTH 9 0
BBX 9 8 0 0
BITMAP
D380
DF80
DF80
DF80
DF80
D380
D380
D380
ENDCHAR
STARTCHAR Itilde
ENCODING 296
SWIDTH 338 0
DWIDTH 4 0
BBX 6 12 -1 0
BITMAP
F4
FC
00
68
68
68
68
68
68
68
68
68
ENDCHAR
STARTCHAR itilde
ENCODING 297
SWIDTH 337 0
DWIDTH 4 0
BBX 6 10 -1 0
BITMAP
F4
FC
68
68
68
68
68
68
68
68
ENDCHAR
STARTCHAR Imacron
ENCODING 298
SWIDTH 338 0
DWIDTH 4 0
BBX 3 9 0 0
BITMAP
E0
E0
E0
E0
E0
E0
E0
E0
E0
ENDCHAR
STARTCHAR imacron
ENCODING 299
SWIDTH 337 0
DWIDTH 4 0
BBX 3 8 0 0
BITMAP
E0
E0
E0
E0
E0
E0
E0
E0
ENDCHAR
STARTCHAR Ibreve
ENCODING 300
SWIDTH 338 0
DWIDTH 4 0
BBX 3 11 0 0
BITMAP
E0
00
E0
E0
E0
E0
E0
E0
E0
E0
E0
ENDCHAR
STARTCHAR ibreve
ENCODING 301
SWIDTH 337 0
DWIDTH 4 0
BBX 3 10 0 0
BITMAP
E0
00
E0
E0
E0
E0
E0
E0
E0
E0
ENDCHAR
STARTCHAR Iogonek
ENCODING 302
SWIDTH 338 0
DWIDTH 4 0
BBX 3 12 0 -3
BITMAP
E0
E0
E0
E0
E0
E0
E0
E0
E0
60
40
60
ENDCHAR
STARTCHAR iogonek
ENCODING 303
SWIDTH 337 0
DWIDTH 4 0
BBX 3 11 0 -3
BITMAP
E0
E0
E0
E0
E0
E0
E0
E0
60
40
60
ENDCHAR
STARTCHAR Idotaccent
ENCODING 304
SWIDTH 338 0
DWIDTH 4 0
BBX 3 12 0 0
BITMAP
60
60
00
E0
E0
E0
E0
E0
E0
E0
E0
E0
ENDCHAR
STARTCHAR dotlessi
ENCODING 305
SWIDTH 337 0
DWIDTH 4 0
BBX 3 8 0 0
BITMAP
E0
E0
E0
E0
E0
E0
E0
E0
ENDCHAR
STARTCHAR IJ
ENCODING 306
SWIDTH 774 0
DWIDTH 9 0
BBX 8 9 0 0
BITMAP
D5
D5
D5
D5
D5
D5
D7
DF
DE
ENDCHAR
STARTCHAR ij
ENCODING 307
SWIDTH 729 0
DWIDTH 8 0
BBX 8 9 0 -1
BITMAP
D7
D7
D7
D7
D7
D7
DE
DE
0C
ENDCHAR
STARTCHAR Jcircumflex
ENCODING 308
SWIDTH 434 0
DWIDTH 5 0
BBX 5 13 0 0
BITMAP
30
50
78
00
30
30
30
30
30
30
68
D0
E0
ENDCHAR
STARTCHAR jcircumflex
ENCODING 309
SWIDTH 393 0
DWIDTH 4 0
BBX 4 12 0 -1
BITMAP
20
70
50
50
50
50
50
50
50
D0
A0
C0
ENDCHAR
STARTCHAR Kcommaaccent
ENCODING 310
SWIDTH 815 0
DWIDTH 9 0
BBX 9 13 0 -4
BITMAP
D380
D700
DF00
D600
DC00
DE00
DE00
D700
D780
0000
0C00
0C00
0C00
ENDCHAR
STARTCHAR kcommaaccent
ENCODING 311
SWIDTH 801 0
DWIDTH 9 0
BBX 9 12 0 -4
BITMAP
D780
D700
DE00
DA00
DE00
DE00
DB00
D780
0000
0C00
0C00
0C00
ENDCHAR
STARTCHAR kgreenlandic
ENCODING 312
SWIDTH 801 0
DWIDTH 9 0
BBX 9 8 0 0
BITMAP
D780
D700
DE00
DA00
DE00
DE00
DB00
D780
ENDCHAR
STARTCHAR Lacute
ENCODING 313
SWIDTH 604 0
DWIDTH 7 0
BBX 7 12 0 0
BITMAP
0E
38
00
D0
D0
D0
D0
D0
D0
D0
DC
DC
ENDCHAR
STARTCHAR lacute
ENCODING 314
SWIDTH 583 0
DWIDTH 6 0
BBX 6 11 0 0
BITMAP
18
60
00
D0
D0
D0
D0
D0
D0
DC
DC
ENDCHAR
STARTCHAR Lcommaaccent
ENCODING 315
SWIDTH 604 0
DWIDTH 7 0
BBX 6 13 0 -4
BITMAP
D0
D0
D0
D0
D0
D0
D0
DC
DC
00
30
10
30
ENDCHAR
STARTCHAR lcommaaccent
ENCODING 316
SWIDTH 583 0
DWIDTH 6 0
BBX 6 12 0 -4
BITMAP
D0
D0
D0
D0
D0
D0
DC
DC
00
28
10
30
ENDCHAR
STARTCHAR Lcaron
ENCODING 317
SWIDTH 856 0
DWIDTH 9 0
BBX 9 9 0 0
BITMAP
D180
D180
D180
D100
D000
D000
D000
DC00
DC00
ENDCHAR
STARTCHAR lcaron
ENCODING 318
SWIDTH 584 0
DWIDTH 6 0
BBX 6 8 0 0
BITMAP
DC
DC
DC
D8
D0
D0
DC
DC
ENDCHAR
STARTCHAR Ldot
ENCODING 319
SWIDTH 604 0
DWIDTH 7 0
BBX 6 9 0 0
BITMAP
D0
D0
D0
D0
DC
DC
D0
DC
DC
ENDCHAR
STARTCHAR ldot
ENCODING 320
SWIDTH 582 0
DWIDTH 6 0
BBX 6 8 0 0
BITMAP
D0
D0
DC
DC
D0
D0
DC
DC
ENDCHAR
STARTCHAR Lslash
ENCODING 321
SWIDTH 604 0
DWIDTH 7 0
BBX 7 9 -1 0
BITMAP
68
68
6C
6C
E8
E8
68
6E
6E
ENDCHAR
STARTCHAR lslash
ENCODING 322
SWIDTH 581 0
DWIDTH 6 0
BBX 7 8 -1 0
BITMAP
68
68
6C
EC
E8
E8
6E
6E
ENDCHAR
STARTCHAR Nacute
ENCODING 323
SWIDTH 877 0
DWIDTH 10 0
BBX 9 12 0 0
BITMAP
0300
0C00
0000
F380
FB80
FB80
DF80
DB80
DD80
DF80
D580
D780
ENDCHAR
STARTCHAR nacute
ENCODING 324
SWIDTH 787 0
DWIDTH 9 0
BBX 8 11 0 0
BITMAP
07
1C
00
F3
EB
FB
FF
DB
CF
CB
CD
ENDCHAR
STARTCHAR Ncommaaccent
ENCODING 325
SWIDTH 877 0
DWIDTH 10 0
BBX 9 13 0 -4
BITMAP
F380
FB80
FB80
DF80
DB80
DD80
DF80
D580
D780
0000
0C00
0400
0C00
ENDCHAR
STARTCHAR ncommaaccent
ENCODING 326
SWIDTH 787 0
DWIDTH 9 0
BBX 8 12 0 -4
BITMAP
F3
EB
FB
FF
DB
CF
CB
CD
00
18
08
18
ENDCHAR
STARTCHAR Ncaron
ENCODING 327
SWIDTH 877 0
DWIDTH 10 0
BBX 9 13 0 0
BITMAP
1C00
1C00
0C00
0000
F380
FB80
FB80
DF80
DB80
DD80
DF80
D580
D780
ENDCHAR
STARTCHAR ncaron
ENCODING 328
SWIDTH 787 0
DWIDTH 9 0
BBX 8 11 0 0
BITMAP
14
18
18
F3
EB
FB
FF
DB
CF
CB
CD
ENDCHAR
STARTCHAR Eng
ENCODING 330
SWIDTH 874 0
DWIDTH 10 0
BBX 9 12 0 -3
BITMAP
F380
FB80
D780
FF80
DF80
D780
DF80
D780
D380
0680
0380
0700
ENDCHAR
STARTCHAR eng
ENCODING 331
SWIDTH 691 0
DWIDTH 8 0
BBX 7 11 0 -3
BITMAP
F6
EE
F6
FE
D6
CE
CE
C6
06
0E
0C
ENDCHAR
STARTCHAR Omacron
ENCODING 332
SWIDTH 933 0
DWIDTH 10 0
BBX 10 9 0 0
BITMAP
3F00
7D80
EBC0
D140
A1C0
D140
B3C0
6F80
3F00
ENDCHAR
STARTCHAR omacron
ENCODING 333
SWIDTH 833 0
DWIDTH 9 0
BBX 9 8 0 0
BITMAP
3E00
7B00
7F00
E280
A280
7780
7F00
3E00
ENDCHAR
STARTCHAR Obreve
ENCODING 334
SWIDTH 933 0
DWIDTH 10 0
BBX 10 11 0 0
BITMAP
1E00
0800
3700
7D80
EBC0
D140
A1C0
D140
B3C0
6F80
3F00
ENDCHAR
STARTCHAR obreve
ENCODING 335
SWIDTH 833 0
DWIDTH 9 0
BBX 9 10 0 0
BITMAP
1C00
0000
3E00
7B00
7F00
E280
A280
7780
7F00
3E00
ENDCHAR
STARTCHAR Ohungarumlaut
ENCODING 336
SWIDTH 933 0
DWIDTH 10 0
BBX 11 12 0 0
BITMAP
0EE0
3B80
0800
3700
7D80
EBC0
D140
A1C0
D140
B3C0
6F80
3F00
ENDCHAR
STARTCHAR ohungarumlaut
ENCODING 337
SWIDTH 833 0
DWIDTH 9 0
BBX 10 11 0 0
BITMAP
1DC0
7F80
0000
3E00
7B00
7F00
E280
A280
7780
7F00
3E00
ENDCHAR
STARTCHAR OE
ENCODING 338
SWIDTH 1317 0
DWIDTH 15 0
BBX 14 9 0 0
BITMAP
3FFC
7DFC
EBC0
D1C0
A1B0
D1B0
B3C0
6FFC
3FFC
ENDCHAR
STARTCHAR oe
ENCODING 339
SWIDTH 1174 0
DWIDTH 13 0
BBX 12 8 0 0
BITMAP
3EF0
7A80
7EF0
E2F0
A2F0
7680
7EF0
3EF0
ENDCHAR
STARTCHAR Racute
ENCODING 340
SWIDTH 843 0
DWIDTH 9 0
BBX 9 12 0 0
BITMAP
0E00
3800
0000
FE00
FD00
DE80
DF80
D380
DF00
DF00
D500
D780
ENDCHAR
STARTCHAR Rcommaaccent
ENCODING 342
SWIDTH 843 0
DWIDTH 9 0
BBX 9 13 0 -4
BITMAP
FE00
FD00
DE80
DF80
D380
DF00
DF00
D500
D780
0000
1800
0800
1800
ENDCHAR
STARTCHAR rcommaaccent
ENCODING 343
SWIDTH 831 0
DWIDTH 9 0
BBX 9 12 0 -4
BITMAP
FE00
C300
FD80
D280
DF80
D100
DE00
D500
0000
1400
0800
1800
ENDCHAR
STARTCHAR Rcaron
ENCODING 344
SWIDTH 843 0
DWIDTH 9 0
BBX 9 13 0 0
BITMAP
7800
2800
3000
0000
FE00
FD00
DE80
DF80
D380
DF00
DF00
D500
D780
ENDCHAR
STARTCHAR rcaron
ENCODING 345
SWIDTH 831 0
DWIDTH 9 0
BBX 9 11 0 0
BITMAP
1C00
1400
0800
FE00
C300
FD80
D280
DF80
D100
DE00
D500
ENDCHAR
STARTCHAR Sacute
ENCODING 346
SWIDTH 682 0
DWIDTH 8 0
BBX 7 12 0 0
BITMAP
06
18
08
76
5A
E4
DC
AE
76
2E
7A
FC
ENDCHAR
STARTCHAR sacute
ENCODING 347
SWIDTH 683 0
DWIDTH 8 0
BBX 7 11 0 0
BITMAP
06
18
00
3C
DE
A0
DC
7E
06
7E
FC
ENDCHAR
STARTCHAR Scircumflex
ENCODING 348
SWIDTH 682 0
DWIDTH 8 0
BBX 7 13 0 0
BITMAP
18
38
28
08
76
5A
E4
DC
AE
76
2E
7A
FC
ENDCHAR
STARTCHAR scircumflex
ENCODING 349
SWIDTH 683 0
DWIDTH 8 0
BBX 7 11 0 0
BITMAP
18
38
28
34
DE
A0
DC
7E
06
7E
FC
ENDCHAR
STARTCHAR Scedilla
ENCODING 350
SWIDTH 682 0
DWIDTH 8 0
BBX 7 13 0 -4
BITMAP
7E
5A
E4
DC
AE
76
2E
7A
DC
20
38
20
30
ENDCHAR
STARTCHAR scedilla
ENCODING 351
SWIDTH 683 0
DWIDTH 8 0
BBX 7 11 0 -3
BITMAP
3C
DE
A0
DC
7E
06
7E
C4
38
20
30
ENDCHAR
STARTCHAR Scaron
ENCODING 352
SWIDTH 682 0
DWIDTH 8 0
BBX 7 13 0 0
BITMAP
38
38
18
08
76
5A
E4
DC
AE
76
2E
7A
FC
ENDCHAR
STARTCHAR scaron
ENCODING 353
SWIDTH 683 0
DWIDTH 8 0
BBX 7 11 0 0
BITMAP
38
38
18
24
DE
A0
DC
7E
06
7E
FC
ENDCHAR
STARTCHAR Tcommaaccent
ENCODING 354
SWIDTH 591 0
DWIDTH 7 0
BBX 6 12 0 -3
BITMAP
FC
FC
38
38
38
38
38
38
38
50
60
70
ENDCHAR
STARTCHAR tcommaaccent
ENCODING 355
SWIDTH 588 0
DWIDTH 6 0
BBX 6 11 0 -3
BITMAP
FC
00
FC
38
38
38
38
38
50
60
70
ENDCHAR
STARTCHAR Tcaron
ENCODING 356
SWIDTH 591 0
DWIDTH 7 0
BBX 6 13 0 0
BITMAP
78
30
30
00
FC
FC
38
38
38
38
38
38
38
ENDCHAR
STARTCHAR tcaron
ENCODING 357
SWIDTH 842 0
DWIDTH 9 0
BBX 9 8 0 0
BITMAP
FD80
0180
FD80
3900
3800
3800
3800
3800
ENDCHAR
STARTCHAR Tbar
ENCODING 358
SWIDTH 591 0
DWIDTH 7 0
BBX 6 9 0 0
BITMAP
FC
FC
38
38
DC
38
38
38
38
ENDCHAR
STARTCHAR tbar
ENCODING 359
SWIDTH 588 0
DWIDTH 6 0
BBX 6 8 0 0
BITMAP
FC
00
FC
38
FC
FC
38
38
ENDCHAR
STARTCHAR Utilde
ENCODING 360
SWIDTH 905 0
DWIDTH 10 0
BBX 9 12 0 0
BITMAP
3D00
2F00
0000
E280
E280
E280
E280
E280
D180
B280
6D80
3F00
ENDCHAR
STARTCHAR utilde
ENCODING 361
SWIDTH 795 0
DWIDTH 9 0
BBX 8 10 0 0
BITMAP
7F
5E
E3
E3
E3
E3
E3
77
5F
3E
ENDCHAR
STARTCHAR Umacron
ENCODING 362
SWIDTH 905 0
DWIDTH 10 0
BBX 9 9 0 0
BITMAP
E280
E280
E280
E280
E280
D180
B280
6D80
3F00
ENDCHAR
STARTCHAR umacron
ENCODING 363
SWIDTH 795 0
DWIDTH 9 0
BBX 8 8 0 0
BITMAP
E3
E3
E3
E3
E3
77
5F
3E
ENDCHAR
STARTCHAR Ubreve
ENCODING 364
SWIDTH 905 0
DWIDTH 10 0
BBX 9 11 0 0
BITMAP
1E00
0000
E280
E280
E280
E280
E280
D180
B280
6D80
3F00
ENDCHAR
STARTCHAR ubreve
ENCODING 365
SWIDTH 795 0
DWIDTH 9 0
BBX 8 10 0 0
BITMAP
3C
10
E3
E3
E3
E3
E3
77
5F
3E
ENDCHAR
STARTCHAR Uring
ENCODING 366
SWIDTH 905 0
DWIDTH 10 0
BBX 9 12 0 0
BITMAP
0C00
1C00
0000
E280
E280
E280
E280
E280
D180
B280
6D80
3F00
ENDCHAR
STARTCHAR uring
ENCODING 367
SWIDTH 795 0
DWIDTH 9 0
BBX 8 11 0 0
BITMAP
1C
14
08
E3
E3
E3
E3
E3
77
5F
3E
ENDCHAR
STARTCHAR Uhungarumlaut
ENCODING 368
SWIDTH 905 0
DWIDTH 10 0
BBX 11 12 0 0
BITMAP
0EE0
3300
0000
E280
E280
E280
E280
E280
D180
B280
6D80
3F00
ENDCHAR
STARTCHAR uhungarumlaut
ENCODING 369
SWIDTH 795 0
DWIDTH 9 0
BBX 10 11 0 0
BITMAP
1DC0
7700
0000
E300
E300
E300
E300
E300
7700
5F00
3E00
ENDCHAR
STARTCHAR Uogonek
ENCODING 370
SWIDTH 905 0
DWIDTH 10 0
BBX 9 12 0 -3
BITMAP
E280
E280
E280
E280
E280
D180
B280
6D80
3F00
1800
1800
1800
ENDCHAR
STARTCHAR uogonek
ENCODING 371
SWIDTH 794 0
DWIDTH 9 0
BBX 8 11 0 -3
BITMAP
E3
E3
E3
E3
E3
77
5F
2A
1C
10
18
ENDCHAR
STARTCHAR Ycircumflex
ENCODING 374
SWIDTH 789 0
DWIDTH 9 0
BBX 8 13 0 0
BITMAP
18
1C
34
00
E3
75
76
5A
2C
1C
14
14
14
ENDCHAR
STARTCHAR ycircumflex
ENCODING 375
SWIDTH 733 0
DWIDTH 8 0
BBX 8 11 0 0
BITMAP
18
14
3C
E5
B6
6A
7C
3C
28
28
28
ENDCHAR
STARTCHAR Ydieresis
ENCODING 376
SWIDTH 789 0
DWIDTH 9 0
BBX 8 11 0 0
BITMAP
36
00
E3
75
76
5A
2C
1C
14
14
14
ENDCHAR
STARTCHAR Zacute
ENCODING 377
SWIDTH 854 0
DWIDTH 9 0
BBX 9 12 0 0
BITMAP
0700
0E00
0000
FF80
FF80
FD80
1E80
2F00
7400
FF80
A800
FF80
ENDCHAR
STARTCHAR zacute
ENCODING 378
SWIDTH 714 0
DWIDTH 8 0
BBX 8 11 0 0
BITMAP
07
18
00
FF
0A
FE
34
28
78
F6
EE
ENDCHAR
STARTCHAR Zdotaccent
ENCODING 379
SWIDTH 854 0
DWIDTH 9 0
BBX 9 12 0 0
BITMAP
0C00
0C00
0000
FF80
FF80
FD80
1E80
2F00
7400
FF80
A800
FF80
ENDCHAR
STARTCHAR zdotaccent
ENCODING 380
SWIDTH 714 0
DWIDTH 8 0
BBX 8 11 0 0
BITMAP
18
18
00
FF
0A
FE
34
28
78
F6
EE
ENDCHAR
STARTCHAR Zcaron
ENCODING 381
SWIDTH 854 0
DWIDTH 9 0
BBX 9 13 0 0
BITMAP
1C00
1400
0800
0000
FF80
FF80
FD80
1E80
2F00
7400
FF80
A800
FF80
ENDCHAR
STARTCHAR zcaron
ENCODING 382
SWIDTH 714 0
DWIDTH 8 0
BBX 8 11 0 0
BITMAP
3C
18
18
FF
0A
FE
34
28
78
F6
EE
ENDCHAR
STARTCHAR florin
ENCODING 402
SWIDTH 388 0
DWIDTH 4 0
BBX 4 10 0 -1
BITMAP
70
70
60
F0
D0
60
60
60
E0
C0
ENDCHAR
STARTCHAR uni01C4
ENCODING 452
SWIDTH 1740 0
DWIDTH 19 0
BBX 19 13 0 0
BITMAP
000700
000700
000200
000000
FE3FE0
FFBFE0
DFBDE0
D347E0
D18F80
D39F00
DFADE0
E2BA00
FF3FE0
ENDCHAR
STARTCHAR uni01C5
ENCODING 453
SWIDTH 1601 0
DWIDTH 18 0
BBX 17 11 0 0
BITMAP
000E00
000A00
FE0400
FFBF80
DF8680
D37D00
D18F00
D38E00
DF9C00
E29F80
FF3F80
ENDCHAR
STARTCHAR Scommaaccent
ENCODING 536
SWIDTH 682 0
DWIDTH 8 0
BBX 7 13 0 -4
BITMAP
7E
5A
E4
DC
AE
76
2E
7A
DC
20
18
18
18
ENDCHAR
STARTCHAR scommaaccent
ENCODING 537
SWIDTH 683 0
DWIDTH 8 0
BBX 7 12 0 -4
BITMAP
3C
DE
A0
DC
7E
06
7E
FC
00
18
18
18
ENDCHAR
STARTCHAR uni021A
ENCODING 538
SWIDTH 591 0
DWIDTH 7 0
BBX 6 13 0 -4
BITMAP
FC
FC
38
38
38
38
38
38
38
00
28
10
30
ENDCHAR
STARTCHAR uni021B
ENCODING 539
SWIDTH 588 0
DWIDTH 6 0
BBX 6 12 0 -4
BITMAP
FC
00
FC
38
38
38
38
38
00
28
10
30
ENDCHAR
STARTCHAR uni0237
ENCODING 567
SWIDTH 393 0
DWIDTH 4 0
BBX 4 9 0 -1
BITMAP
50
50
50
50
50
50
D0
A0
C0
ENDCHAR
STARTCHAR circumflex
ENCODING 710
SWIDTH 376 0
DWIDTH 4 0
BBX 4 3 0 8
BITMAP
60
50
F0
ENDCHAR
STARTCHAR caron
ENCODING 711
SWIDTH 362 0
DWIDTH 4 0
BBX 4 3 0 8
BITMAP
F0
60
60
ENDCHAR
STARTCHAR breve
ENCODING 728
SWIDTH 360 0
DWIDTH 4 0
BBX 4 1 0 9
BITMAP
F0
ENDCHAR
STARTCHAR dotaccent
ENCODING 729
SWIDTH 255 0
DWIDTH 3 0
BBX 2 2 0 7
BITMAP
C0
C0
ENDCHAR
STARTCHAR ring
ENCODING 730
SWIDTH 330 0
DWIDTH 4 0
BBX 3 2 0 9
BITMAP
E0
E0
ENDCHAR
STARTCHAR ogonek
ENCODING 731
SWIDTH 250 0
DWIDTH 3 0
BBX 2 3 0 -3
BITMAP
C0
C0
C0
ENDCHAR
STARTCHAR tilde
ENCODING 732
SWIDTH 665 0
DWIDTH 7 0
BBX 7 2 0 6
BITMAP
FE
FC
ENDCHAR
STARTCHAR hungarumlaut
ENCODING 733
SWIDTH 837 0
DWIDTH 9 0
BBX 9 2 0 8
BITMAP
3B80
EE00
ENDCHAR
STARTCHAR uni0307
ENCODING 775
SWIDTH 260 0
DWIDTH 3 0
BBX 2 2 0 4
BITMAP
C0
C0
ENDCHAR
STARTCHAR uni030F
ENCODING 783
SWIDTH 554 0
DWIDTH 6 0
BBX 6 4 0 8
BITMAP
D0
48
48
2C
ENDCHAR
STARTCHAR uni0311
ENCODING 785
SWIDTH 375 0
DWIDTH 4 0
BBX 4 1 0 9
BITMAP
F0
ENDCHAR
STARTCHAR uni0326
ENCODING 806
SWIDTH 274 0
DWIDTH 3 0
BBX 1 3 1 -4
BITMAP
80
80
80
ENDCHAR
STARTCHAR Omega
ENCODING 937
SWIDTH 92 0
DWIDTH 1 0
BBX 1 1 0 0
BITMAP
00
ENDCHAR
STARTCHAR uni00B5.dup2
ENCODING 956
SWIDTH 802 0
DWIDTH 9 0
BBX 7 9 1 -1
BITMAP
A6
A6
A6
A6
A6
AE
BE
B4
A8
ENDCHAR
STARTCHAR pi
ENCODING 960
SWIDTH 92 0
DWIDTH 1 0
BBX 1 1 0 0
BITMAP
00
ENDCHAR
STARTCHAR endash
ENCODING 8211
SWIDTH 473 0
DWIDTH 5 0
BBX 5 2 0 3
BITMAP
F8
F8
ENDCHAR
STARTCHAR emdash
ENCODING 8212
SWIDTH 615 0
DWIDTH 7 0
BBX 6 2 0 3
BITMAP
FC
FC
ENDCHAR
STARTCHAR quoteleft
ENCODING 8216
SWIDTH 254 0
DWIDTH 3 0
BBX 2 4 0 5
BITMAP
40
C0
C0
C0
ENDCHAR
STARTCHAR quoteright
ENCODING 8217
SWIDTH 251 0
DWIDTH 3 0
BBX 2 4 0 5
BITMAP
C0
C0
C0
80
ENDCHAR
STARTCHAR quotesinglbase
ENCODING 8218
SWIDTH 252 0
DWIDTH 3 0
BBX 2 4 0 -2
BITMAP
C0
C0
C0
80
ENDCHAR
STARTCHAR quotedblleft
ENCODING 8220
SWIDTH 535 0
DWIDTH 6 0
BBX 5 4 0 5
BITMAP
48
C8
C8
C8
ENDCHAR
STARTCHAR quotedblright
ENCODING 8221
SWIDTH 532 0
DWIDTH 6 0
BBX 5 4 0 5
BITMAP
C8
C8
B8
D0
ENDCHAR
STARTCHAR quotedblbase
ENCODING 8222
SWIDTH 533 0
DWIDTH 6 0
BBX 5 4 0 -2
BITMAP
C8
C8
B8
D0
ENDCHAR
STARTCHAR dagger
ENCODING 8224
SWIDTH 636 0
DWIDTH 7 0
BBX 7 9 0 0
BITMAP
38
38
FE
F6
38
38
38
38
38
ENDCHAR
STARTCHAR daggerdbl
ENCODING 8225
SWIDTH 648 0
DWIDTH 7 0
BBX 7 9 0 0
BITMAP
28
EE
28
EE
28
EE
EE
28
28
ENDCHAR
STARTCHAR bullet
ENCODING 8226
SWIDTH 501 0
DWIDTH 6 0
BBX 5 5 0 1
BITMAP
78
C8
C8
78
20
ENDCHAR
STARTCHAR ellipsis
ENCODING 8230
SWIDTH 676 0
DWIDTH 7 0
BBX 7 2 0 0
BITMAP
DE
DE
ENDCHAR
STARTCHAR perthousand
ENCODING 8240
SWIDTH 447 0
DWIDTH 5 0
BBX 5 10 0 -1
BITMAP
18
30
30
30
30
60
60
60
60
C0
ENDCHAR
STARTCHAR guilsinglleft
ENCODING 8249
SWIDTH 465 0
DWIDTH 5 0
BBX 5 6 0 1
BITMAP
18
28
F0
D0
28
18
ENDCHAR
STARTCHAR guilsinglright
ENCODING 8250
SWIDTH 465 0
DWIDTH 5 0
BBX 5 6 0 1
BITMAP
80
F0
78
58
A0
C0
ENDCHAR
STARTCHAR fraction
ENCODING 8260
SWIDTH 447 0
DWIDTH 5 0
BBX 5 10 0 -1
BITMAP
18
30
30
30
30
60
60
60
60
C0
ENDCHAR
STARTCHAR uni2074
ENCODING 8308
SWIDTH 528 0
DWIDTH 6 0
BBX 5 7 0 2
BITMAP
30
30
50
78
F8
E0
18
ENDCHAR
STARTCHAR Euro
ENCODING 8364
SWIDTH 781 0
DWIDTH 9 0
BBX 8 9 0 0
BITMAP
1F
37
39
FC
50
FC
79
3F
1F
ENDCHAR
STARTCHAR trademark
ENCODING 8482
SWIDTH 1503 0
DWIDTH 17 0
BBX 16 7 0 2
BITMAP
FD47
FDC5
29C7
29AB
29EF
29FB
29BB
ENDCHAR
STARTCHAR partialdiff
ENCODING 8706
SWIDTH 108 0
DWIDTH 1 0
BBX 1 1 0 0
BITMAP
00
ENDCHAR
STARTCHAR uni2206
ENCODING 8710
SWIDTH 108 0
DWIDTH 1 0
BBX 1 1 0 0
BITMAP
00
ENDCHAR
STARTCHAR product
ENCODING 8719
SWIDTH 521 0
DWIDTH 6 0
BBX 5 8 0 0
BITMAP
30
70
68
78
F8
68
58
30
ENDCHAR
STARTCHAR summation
ENCODING 8721
SWIDTH 108 0
DWIDTH 1 0
BBX 1 1 0 0
BITMAP
00
ENDCHAR
STARTCHAR minus
ENCODING 8722
SWIDTH 555 0
DWIDTH 6 0
BBX 6 2 0 4
BITMAP
FC
FC
ENDCHAR
STARTCHAR radical
ENCODING 8730
SWIDTH 108 0
DWIDTH 1 0
BBX 1 1 0 0
BITMAP
00
ENDCHAR
STARTCHAR infinity
ENCODING 8734
SWIDTH 108 0
DWIDTH 1 0
BBX 1 1 0 0
BITMAP
00
ENDCHAR
STARTCHAR integral
ENCODING 8747
SWIDTH 362 0
DWIDTH 4 0
BBX 4 10 0 -1
BITMAP
70
50
60
60
60
60
60
60
E0
C0
ENDCHAR
STARTCHAR approxequal
ENCODING 8776
SWIDTH 665 0
DWIDTH 7 0
BBX 7 5 0 3
BITMAP
FE
FC
00
FE
FC
ENDCHAR
STARTCHAR notequal
ENCODING 8800
SWIDTH 473 0
DWIDTH 5 0
BBX 5 10 0 -1
BITMAP
18
30
F8
F8
30
60
F8
60
60
C0
ENDCHAR
STARTCHAR lessequal
ENCODING 8804
SWIDTH 108 0
DWIDTH 1 0
BBX 1 1 0 0
BITMAP
00
ENDCHAR
STARTCHAR greaterequal
ENCODING 8805
SWIDTH 108 0
DWIDTH 1 0
BBX 1 1 0 0
BITMAP
00
ENDCHAR
STARTCHAR lozenge
ENCODING 9674
SWIDTH 521 0
DWIDTH 6 0
BBX 5 8 0 0
BITMAP
30
70
68
78
F8
68
58
30
ENDCHAR
STARTCHAR uniF8FF
ENCODING 63743
SWIDTH 108 0
DWIDTH 1 0
BBX 1 1 0 0
BITMAP
00
ENDCHAR
STARTCHAR uniFB01
ENCODING 64257
SWIDTH 962 0
DWIDTH 11 0
BBX 10 8 0 0
BITMAP
DFC0
D1C0
DFC0
DDC0
DDC0
D1C0
D1C0
D1C0
ENDCHAR
STARTCHAR uniFB02
ENCODING 64258
SWIDTH 1208 0
DWIDTH 13 0
BBX 13 8 0 0
BITMAP
DFC0
D1C0
DFC0
DDC0
DDC0
D1C0
D1F8
D1F8
ENDCHAR
STARTCHAR .notdef
ENCODING -1
SWIDTH 108 0
DWIDTH 1 0
BBX 1 1 0 0
BITMAP
00
ENDCHAR
ENDFONT
